REM DIRINDEX 1\2\6,1\2\7,1\2\8,1\3\9,1\3\10,1\3\11,1\4\12,1\4\13,1\4\14,1\5\15,1\5\16,1\5\17,1\5\18
REM DIRNAME folder01,folder02,folder03,folder04,folder05,folder06,folder07,folder08,folder09,folder10,folder11,folder12,folder13,folder14,folder15,folder16,folder17,folder18
TITLE ""
FILE "" MP3
  TRACK 01 AUDIO
    TITLE "16:cjc019_7545"
    INDEX 01 00:00:00
  TRACK 02 AUDIO
    TITLE "0:"
    INDEX 01 00:01:09
  TRACK 03 AUDIO
    TITLE "18:cjc019_7546"
    INDEX 01 00:01:73
  TRACK 04 AUDIO
    TITLE "0:"
    INDEX 01 00:04:01
  TRACK 05 AUDIO
    TITLE "17:cjc019_7547"
    INDEX 01 00:04:52
  TRACK 06 AUDIO
    TITLE "0:"
    INDEX 01 00:06:00
  TRACK 07 AUDIO
    TITLE "16:cjc019_7548"
    INDEX 01 00:07:56
  TRACK 08 AUDIO
    TITLE "0:"
    INDEX 01 00:09:00
  TRACK 09 AUDIO
    TITLE "18:cjc019_7549"
    INDEX 01 00:09:63
  TRACK 10 AUDIO
    TITLE "0:"
    INDEX 01 00:11:05
  TRACK 11 AUDIO
    TITLE "17:cjc019_7550"
    INDEX 01 00:11:60
  TRACK 12 AUDIO
    TITLE "0:"
    INDEX 01 00:13:12
  TRACK 13 AUDIO
    TITLE "16:cjc019_7551"
    INDEX 01 00:14:66
  TRACK 14 AUDIO
    TITLE "0:"
    INDEX 01 00:16:16
  TRACK 15 AUDIO
    TITLE "18:cjc019_7552"
    INDEX 01 00:16:67
  TRACK 16 AUDIO
    TITLE "0:"
    INDEX 01 00:18:25
  TRACK 17 AUDIO
    TITLE "17:cjc019_7553"
    INDEX 01 00:19:09
  TRACK 18 AUDIO
    TITLE "0:"
    INDEX 01 00:20:32
  TRACK 19 AUDIO
    TITLE "16:cjc019_7554"
    INDEX 01 00:22:13
  TRACK 20 AUDIO
    TITLE "0:"
    INDEX 01 00:23:26
  TRACK 21 AUDIO
    TITLE "18:cjc019_7555"
    INDEX 01 00:24:10
  TRACK 22 AUDIO
    TITLE "0:"
    INDEX 01 00:26:38
  TRACK 23 AUDIO
    TITLE "17:cjc019_7556"
    INDEX 01 00:27:16
  TRACK 24 AUDIO
    TITLE "0:"
    INDEX 01 00:28:31
  TRACK 25 AUDIO
    TITLE "16:cjc019_7557"
    INDEX 01 00:30:12
  TRACK 26 AUDIO
    TITLE "0:"
    INDEX 01 00:31:41
  TRACK 27 AUDIO
    TITLE "18:cjc019_7558"
    INDEX 01 00:32:23
  TRACK 28 AUDIO
    TITLE "0:"
    INDEX 01 00:33:42
  TRACK 29 AUDIO
    TITLE "17:cjc019_7559"
    INDEX 01 00:34:20
  TRACK 30 AUDIO
    TITLE "0:"
    INDEX 01 00:35:49
  TRACK 31 AUDIO
    TITLE "16:cjc019_7560"
    INDEX 01 00:37:32
  TRACK 32 AUDIO
    TITLE "0:"
    INDEX 01 00:38:43
  TRACK 33 AUDIO
    TITLE "18:cjc019_7561"
    INDEX 01 00:39:27
  TRACK 34 AUDIO
    TITLE "0:"
    INDEX 01 00:41:65
  TRACK 35 AUDIO
    TITLE "17:cjc019_7562"
    INDEX 01 00:42:45
  TRACK 36 AUDIO
    TITLE "0:"
    INDEX 01 00:43:54
  TRACK 37 AUDIO
    TITLE "16:cjc019_7563"
    INDEX 01 00:45:39
  TRACK 38 AUDIO
    TITLE "0:"
    INDEX 01 00:46:47
  TRACK 39 AUDIO
    TITLE "18:cjc019_7564"
    INDEX 01 00:47:27
  TRACK 40 AUDIO
    TITLE "0:"
    INDEX 01 00:50:74
  TRACK 41 AUDIO
    TITLE "17:cjc019_7565"
    INDEX 01 00:51:54
  TRACK 42 AUDIO
    TITLE "0:"
    INDEX 01 00:52:65
  TRACK 43 AUDIO
    TITLE "16:cjc019_7566"
    INDEX 01 00:54:42
  TRACK 44 AUDIO
    TITLE "0:"
    INDEX 01 00:55:63
  TRACK 45 AUDIO
    TITLE "18:cjc019_7567"
    INDEX 01 00:56:51
  TRACK 46 AUDIO
    TITLE "0:"
    INDEX 01 01:00:29
  TRACK 47 AUDIO
    TITLE "17:cjc019_7568"
    INDEX 01 01:01:11
  TRACK 48 AUDIO
    TITLE "0:"
    INDEX 01 01:02:36
  TRACK 49 AUDIO
    TITLE "16:cjc019_7569"
    INDEX 01 01:04:15
  TRACK 50 AUDIO
    TITLE "0:"
    INDEX 01 01:05:40
  TRACK 51 AUDIO
    TITLE "18:cjc019_7570"
    INDEX 01 01:06:20
  TRACK 52 AUDIO
    TITLE "0:"
    INDEX 01 01:08:50
  TRACK 53 AUDIO
    TITLE "17:cjc019_7571"
    INDEX 01 01:09:32
  TRACK 54 AUDIO
    TITLE "0:"
    INDEX 01 01:10:63
  TRACK 55 AUDIO
    TITLE "16:cjc019_7572"
    INDEX 01 01:12:46
  TRACK 56 AUDIO
    TITLE "0:"
    INDEX 01 01:13:57
  TRACK 57 AUDIO
    TITLE "18:cjc019_7573"
    INDEX 01 01:14:37
  TRACK 58 AUDIO
    TITLE "0:"
    INDEX 01 01:16:07
  TRACK 59 AUDIO
    TITLE "17:cjc019_7574"
    INDEX 01 01:16:63
  TRACK 60 AUDIO
    TITLE "0:"
    INDEX 01 01:18:02
  TRACK 61 AUDIO
    TITLE "16:cjc019_7575"
    INDEX 01 01:19:60
  TRACK 62 AUDIO
    TITLE "0:"
    INDEX 01 01:21:06
  TRACK 63 AUDIO
    TITLE "18:cjc019_7576"
    INDEX 01 01:21:63
  TRACK 64 AUDIO
    TITLE "0:"
    INDEX 01 01:24:22
  TRACK 65 AUDIO
    TITLE "17:cjc019_7577"
    INDEX 01 01:24:67
  TRACK 66 AUDIO
    TITLE "0:"
    INDEX 01 01:26:19
  TRACK 67 AUDIO
    TITLE "16:cjc019_7578"
    INDEX 01 01:28:06
  TRACK 68 AUDIO
    TITLE "0:"
    INDEX 01 01:29:39
  TRACK 69 AUDIO
    TITLE "18:cjc019_7579"
    INDEX 01 01:30:24
  TRACK 70 AUDIO
    TITLE "0:"
    INDEX 01 01:32:41
  TRACK 71 AUDIO
    TITLE "17:cjc019_7580"
    INDEX 01 01:33:19
  TRACK 72 AUDIO
    TITLE "0:"
    INDEX 01 01:34:55
  TRACK 73 AUDIO
    TITLE "16:cjc019_7581"
    INDEX 01 01:36:35
  TRACK 74 AUDIO
    TITLE "0:"
    INDEX 01 01:37:73
  TRACK 75 AUDIO
    TITLE "18:cjc019_7582"
    INDEX 01 01:38:51
  TRACK 76 AUDIO
    TITLE "0:"
    INDEX 01 01:40:72
  TRACK 77 AUDIO
    TITLE "17:cjc019_7583"
    INDEX 01 01:41:52
  TRACK 78 AUDIO
    TITLE "0:"
    INDEX 01 01:43:15
  TRACK 79 AUDIO
    TITLE "16:cjc019_7584"
    INDEX 01 01:45:04
  TRACK 80 AUDIO
    TITLE "0:"
    INDEX 01 01:46:39
  TRACK 81 AUDIO
    TITLE "18:cjc019_7585"
    INDEX 01 01:47:25
  TRACK 82 AUDIO
    TITLE "0:"
    INDEX 01 01:49:49
  TRACK 83 AUDIO
    TITLE "17:cjc019_7586"
    INDEX 01 01:50:33
  TRACK 84 AUDIO
    TITLE "0:"
    INDEX 01 01:51:66
  TRACK 85 AUDIO
    TITLE "16:cjc019_7587"
    INDEX 01 01:53:53
  TRACK 86 AUDIO
    TITLE "0:"
    INDEX 01 01:55:26
  TRACK 87 AUDIO
    TITLE "18:cjc019_7588"
    INDEX 01 01:56:12
  TRACK 88 AUDIO
    TITLE "0:"
    INDEX 01 01:58:54
  TRACK 89 AUDIO
    TITLE "17:cjc019_7589"
    INDEX 01 01:59:32
  TRACK 90 AUDIO
    TITLE "0:"
    INDEX 01 02:01:07
  TRACK 91 AUDIO
    TITLE "16:cjc019_7590"
    INDEX 01 02:02:64
  TRACK 92 AUDIO
    TITLE "0:"
    INDEX 01 02:04:12
  TRACK 93 AUDIO
    TITLE "18:cjc019_7591"
    INDEX 01 02:04:68
  TRACK 94 AUDIO
    TITLE "0:"
    INDEX 01 02:06:12
  TRACK 95 AUDIO
    TITLE "17:cjc019_7592"
    INDEX 01 02:06:61
  TRACK 96 AUDIO
    TITLE "0:"
    INDEX 01 02:08:15
  TRACK 97 AUDIO
    TITLE "16:cjc019_7593"
    INDEX 01 02:09:69
  TRACK 98 AUDIO
    TITLE "0:"
    INDEX 01 02:11:14
  TRACK 99 AUDIO
    TITLE "18:cjc019_7594"
    INDEX 01 02:11:72
  TRACK 100 AUDIO
    TITLE "0:"
    INDEX 01 02:14:10
  TRACK 101 AUDIO
    TITLE "17:cjc019_7595"
    INDEX 01 02:14:61
  TRACK 102 AUDIO
    TITLE "0:"
    INDEX 01 02:16:13
  TRACK 103 AUDIO
    TITLE "16:cjc019_7596"
    INDEX 01 02:17:65
  TRACK 104 AUDIO
    TITLE "0:"
    INDEX 01 02:18:68
  TRACK 105 AUDIO
    TITLE "18:cjc019_7597"
    INDEX 01 02:19:54
  TRACK 106 AUDIO
    TITLE "0:"
    INDEX 01 02:20:54
  TRACK 107 AUDIO
    TITLE "17:cjc019_7598"
    INDEX 01 02:21:32
  TRACK 108 AUDIO
    TITLE "0:"
    INDEX 01 02:22:37
